<svg
   version="1.1"
   viewBox="0 0 32 32"
   xmlns="http://www.w3.org/2000/svg">
  <rect
     style="fill:#cce4d8;fill-opacity:1"
     width="18.6"
     height="20.3"
     x="7"
     y="5.1" />
  <path
     style="fill:#298965;fill-opacity:1;stroke:#298965;stroke-width:0.04"
     d="m 3.98,31.4 c -0.49,-0.26 -0.7,-0.69 -0.66,-1.34 0.04,-0.56 0.41,-1.72 0.92,-2.86 0.19,-0.43 0.35,-0.83 0.35,-0.89 0,-0.06 -0.17,-0.3 -0.37,-0.54 C 2.19,23.46 0.93,20.53 0.59,17.42 c -0.1,-0.89 -0.1,-2.73 0,-3.65 0.58,-5.23 3.97,-9.87 8.75,-11.99 1.5,-0.66 3.19,-1.11 4.68,-1.24 0.51,-0.05 3.68,-0.08 7.67,-0.08 7.51,0 7.25,-0.02 7.9,0.48 0.41,0.31 0.77,0.9 0.88,1.46 0.11,0.57 0.12,13.18 0.01,14.57 -0.43,5.33 -3.75,10.09 -8.68,12.46 -0.39,0.19 -1.16,0.49 -1.7,0.67 -2.75,0.91 -5.33,1.01 -8.27,0.29 -0.44,-0.11 -0.94,-0.19 -1.11,-0.19 -0.18,0 -0.87,0.17 -1.55,0.38 -1.51,0.47 -2.19,0.64 -3.3,0.84 -1.12,0.2 -1.48,0.2 -1.9,-0.02 z m 10.34,-7.41 c 3.03,-0.41 5.15,-1.44 7.02,-3.41 1.94,-2.05 3.04,-4.59 3.53,-8.11 0.1,-0.74 0.13,-1.54 0.14,-3.66 l 0.01,-2.72 -0.79,-0.02 c -3.64,-0.11 -8.35,1.23 -11.32,3.22 -1.13,0.75 -2.56,2.17 -3.23,3.18 -1.16,1.77 -1.79,3.61 -1.88,5.52 -0.05,1.03 0.15,3.52 0.34,4.28 0.23,0.93 0.32,0.86 2.09,-1.64 2.39,-3.37 3.22,-4.4 4.89,-6.06 1.46,-1.45 3.47,-3.1 4.27,-3.51 0.65,-0.34 1.3,-0.15 1.61,0.45 0.32,0.63 0.11,0.92 -1.68,2.33 -2.79,2.19 -4.95,4.59 -7.22,8 -0.91,1.37 -1.33,2.09 -1.27,2.19 0.07,0.12 2.57,0.1 3.51,-0.03 z" />
  <path
     stroke="#93c2b0"
     d="m 4.52,26.36 c -0.5,1.07 -0.94,2.04 -1.21,3.14 -0.17,0.74 -0.12,1.41 0.5,1.86 0.53,0.39 1.32,0.24 1.99,0.13 1.49,-0.25 2.75,-0.65 3.58,-0.94 1.28,-0.41 1.79,-0.56 1.8,-0.56 0.41,-0.12 0.84,0 4.82,1.38 9.29,-2.25 10,-6.4 9.97,-11.89 q 0.22,-1.3 0.22,-4.73 -0.02,-9.39 -0.01,-9.75 C 30.65,2.41 30.45,1.28 29.19,0.69 28.74,0.47 28.21,0.43 27.7,0.43 21.4,0.47 16.89,0.45 13.05,0.45 14.22,0.44 13,0.65 12.48,0.65 8.93,1.37 5.47,3.52 3.11,6.91 Q 0.78,10.25 0.48,14.3 -0.03,21.15 4.49,26.2 a 0.15,0.15 41.7 0 1 0.02,0.16"
     style="fill:none;stroke:#298965;stroke-width:0.86;stroke-linecap:butt" />
</svg>
