<?xml version="1.0" encoding="UTF-8" standalone="no"?>
<svg
   version="1.1"
   viewBox="-10 -10 250 250"
   id="svg446"
   sodipodi:docname="logo_only_dark.svg"
   inkscape:version="1.2.2 (b0a8486541, 2022-12-01)"
   width="230"
   height="230.36501"
   xmlns:inkscape="http://www.inkscape.org/namespaces/inkscape"
   xmlns:sodipodi="http://sodipodi.sourceforge.net/DTD/sodipodi-0.dtd"
   xmlns="http://www.w3.org/2000/svg"
   xmlns:svg="http://www.w3.org/2000/svg">
  <defs
     id="defs450" />
  <sodipodi:namedview
     id="namedview448"
     pagecolor="#ffffff"
     bordercolor="#666666"
     borderopacity="1.0"
     inkscape:showpageshadow="2"
     inkscape:pageopacity="0.0"
     inkscape:pagecheckerboard="0"
     inkscape:deskcolor="#d1d1d1"
     showgrid="false"
     inkscape:zoom="10.429825"
     inkscape:cx="511.5618"
     inkscape:cy="91.947851"
     inkscape:window-width="2764"
     inkscape:window-height="1294"
     inkscape:window-x="399"
     inkscape:window-y="74"
     inkscape:window-maximized="0"
     inkscape:current-layer="svg446" />
  <rect
     style="fill:#cce4d8;fill-opacity:1;stroke:none;stroke-width:5.25751;stroke-linejoin:round;stroke-miterlimit:10;stroke-dasharray:none;stroke-dashoffset:8.16378;stroke-opacity:1"
     id="rect3152"
     width="133.47282"
     height="145.56786"
     x="50.458805"
     y="36.912582" />
  <path
     style="fill:#298965;fill-opacity:1;stroke:#298965;stroke-width:0.291254;stroke-linejoin:round;stroke-miterlimit:10;stroke-dasharray:none;stroke-dashoffset:8.16378;stroke-opacity:1"
     d="m 28.603013,225.5332 c -3.48997,-1.84554 -5.02907,-4.98148 -4.71087,-9.59851 0.27956,-4.0564 2.92585,-12.32769 6.57295,-20.54452 1.37422,-3.09609 2.49858,-5.99177 2.49858,-6.43483 0,-0.44305 -1.18198,-2.18107 -2.62664,-3.86225 C 15.750158,168.11792 6.718607,147.3594 4.229887,125.08723 c -0.71771,-6.42299 -0.70233,-19.59175 0.0306,-26.19086 4.17333,-37.57559 28.522936,-70.9108 62.872686,-86.07428 10.79354,-4.76474 22.92862,-7.98942 33.629757,-8.9365 3.65439,-0.32343 26.45189,-0.55371 55.08536,-0.55643 53.93979,-0.005 52.10064,-0.11599 56.75247,3.42129 2.95434,2.24651 5.51948,6.49931 6.3178,10.4744 0.81739,4.07011 0.86533,94.65647 0.0554,104.66498 -3.0978,38.27972 -26.92654,72.49649 -62.34926,89.53013 -2.8339,1.36273 -8.32542,3.5335 -12.20339,4.82393 -19.73997,6.56869 -38.27288,7.2212 -59.389827,2.09102 -3.1322,-0.76095 -6.72616,-1.38856 -7.98656,-1.3947 -1.26041,-0.006 -6.2638,1.21516 -11.11865,2.71399 -10.83593,3.34539 -15.70443,4.58114 -23.70151,6.01608 -8.07999,1.44982 -10.67017,1.42375 -13.62174,-0.13708 z m 74.326767,-53.23193 c 21.76767,-2.92323 36.96813,-10.31618 50.40687,-24.51607 13.92947,-14.71841 21.85915,-32.94878 25.32548,-58.22339 0.72661,-5.29806 0.93894,-11.04669 0.97161,-26.30509 l 0.0418,-19.52542 -5.69492,-0.17022 c -26.11802,-0.78066 -59.9958,8.83926 -81.355927,23.1018 -8.10275,5.41035 -18.41566,15.56058 -23.20274,22.83674 -8.34482,12.68376 -12.84307,25.89377 -13.5034,39.65541 -0.35393,7.37598 1.05866,25.26622 2.42779,30.74768 1.6707,6.68881 2.28749,6.20643 15.04262,-11.76463 17.16117,-24.17885 23.15517,-31.59659 35.151127,-43.50053 10.47975,-10.39936 24.92076,-22.27544 30.685,-25.23491 4.68858,-2.4072 9.33238,-1.10229 11.58037,3.25409 2.32149,4.49883 0.79785,6.60825 -12.07979,16.72395 -20.04471,15.74562 -35.56825,32.9294 -51.886137,57.43537 -6.54833,9.83419 -9.56822,15.01991 -9.14529,15.70422 0.52189,0.84443 18.47708,0.68861 25.235537,-0.219 z"
     id="path2464" />
  <path
     stroke="#93c2b0"
     d="m 32.445353,189.40343 c -3.58779,7.71014 -6.78689,14.67414 -8.66051,22.5932 -1.24576,5.3026 -0.82719,10.1575 3.56784,13.38083 3.78711,2.7856 9.51759,1.71116 14.3013,0.91528 q 10.69358,-1.7808 19.7328,-4.65594 9.21861,-2.92488 12.88612,-4.00927 2.94995,-0.87548 6.00953,0 34.701827,9.92867 66.692887,-1.61167 c 37.7614,-13.62955 64.7794,-46.0022 71.57624,-85.40849 q 1.61451,-9.32181 1.56468,-33.96443 -0.13952,-67.39162 -0.0798,-70.02799 C 220.23576,17.32298 218.71095,9.18505 209.67173,4.93701 206.32314,3.36514 202.56594,3.07662 198.88846,3.09653 Q 153.85183,3.36514 121.37243,3.21591 102.22764,3.12641 93.567133,4.6485 C 64.137353,9.84166 39.291953,25.26194 22.349653,49.626 Q 5.626605,73.66175 3.46397,102.70162 -0.20354,151.84757 32.275853,188.2494 a 1.045708,1.0552833 41.703761 0 1 0.16943,1.15403"
     id="path322"
     style="fill:none;stroke:#298965;stroke-width:6.191;stroke-linecap:butt;stroke-dasharray:none;stroke-opacity:1" />
</svg>
