<?xml version="1.0" encoding="UTF-8" standalone="no"?>
<svg
   version="1.1"
   viewBox="0 0 876.81714 230.36501"
   id="svg446"
   sodipodi:docname="logo_black2.svg"
   inkscape:version="1.2.2 (b0a8486541, 2022-12-01)"
   width="876.81714"
   height="230.36501"
   xmlns:inkscape="http://www.inkscape.org/namespaces/inkscape"
   xmlns:sodipodi="http://sodipodi.sourceforge.net/DTD/sodipodi-0.dtd"
   xmlns="http://www.w3.org/2000/svg"
   xmlns:svg="http://www.w3.org/2000/svg">
  <defs
     id="defs450" />
  <sodipodi:namedview
     id="namedview448"
     pagecolor="#ffffff"
     bordercolor="#666666"
     borderopacity="1.0"
     inkscape:showpageshadow="2"
     inkscape:pageopacity="0.0"
     inkscape:pagecheckerboard="0"
     inkscape:deskcolor="#d1d1d1"
     showgrid="false"
     inkscape:zoom="1.84375"
     inkscape:cx="485.15255"
     inkscape:cy="100.33899"
     inkscape:window-width="2764"
     inkscape:window-height="1294"
     inkscape:window-x="399"
     inkscape:window-y="74"
     inkscape:window-maximized="0"
     inkscape:current-layer="svg446" />
  <rect
     style="fill:#cce4d8;fill-opacity:1;stroke:none;stroke-width:5.25751;stroke-linejoin:round;stroke-miterlimit:10;stroke-dasharray:none;stroke-dashoffset:8.16378;stroke-opacity:1"
     id="rect3152"
     width="133.47282"
     height="145.56786"
     x="50.458805"
     y="36.912582" />
  <path
     style="fill:#298965;fill-opacity:1;stroke:#298965;stroke-width:0.291254;stroke-linejoin:round;stroke-miterlimit:10;stroke-dasharray:none;stroke-dashoffset:8.16378;stroke-opacity:1"
     d="m 28.603013,225.5332 c -3.48997,-1.84554 -5.02907,-4.98148 -4.71087,-9.59851 0.27956,-4.0564 2.92585,-12.32769 6.57295,-20.54452 1.37422,-3.09609 2.49858,-5.99177 2.49858,-6.43483 0,-0.44305 -1.18198,-2.18107 -2.62664,-3.86225 C 15.750158,168.11792 6.718607,147.3594 4.229887,125.08723 c -0.71771,-6.42299 -0.70233,-19.59175 0.0306,-26.19086 4.17333,-37.57559 28.522936,-70.9108 62.872686,-86.07428 10.79354,-4.76474 22.92862,-7.98942 33.629757,-8.9365 3.65439,-0.32343 26.45189,-0.55371 55.08536,-0.55643 53.93979,-0.005 52.10064,-0.11599 56.75247,3.42129 2.95434,2.24651 5.51948,6.49931 6.3178,10.4744 0.81739,4.07011 0.86533,94.65647 0.0554,104.66498 -3.0978,38.27972 -26.92654,72.49649 -62.34926,89.53013 -2.8339,1.36273 -8.32542,3.5335 -12.20339,4.82393 -19.73997,6.56869 -38.27288,7.2212 -59.389827,2.09102 -3.1322,-0.76095 -6.72616,-1.38856 -7.98656,-1.3947 -1.26041,-0.006 -6.2638,1.21516 -11.11865,2.71399 -10.83593,3.34539 -15.70443,4.58114 -23.70151,6.01608 -8.07999,1.44982 -10.67017,1.42375 -13.62174,-0.13708 z m 74.326767,-53.23193 c 21.76767,-2.92323 36.96813,-10.31618 50.40687,-24.51607 13.92947,-14.71841 21.85915,-32.94878 25.32548,-58.22339 0.72661,-5.29806 0.93894,-11.04669 0.97161,-26.30509 l 0.0418,-19.52542 -5.69492,-0.17022 c -26.11802,-0.78066 -59.9958,8.83926 -81.355927,23.1018 -8.10275,5.41035 -18.41566,15.56058 -23.20274,22.83674 -8.34482,12.68376 -12.84307,25.89377 -13.5034,39.65541 -0.35393,7.37598 1.05866,25.26622 2.42779,30.74768 1.6707,6.68881 2.28749,6.20643 15.04262,-11.76463 17.16117,-24.17885 23.15517,-31.59659 35.151127,-43.50053 10.47975,-10.39936 24.92076,-22.27544 30.685,-25.23491 4.68858,-2.4072 9.33238,-1.10229 11.58037,3.25409 2.32149,4.49883 0.79785,6.60825 -12.07979,16.72395 -20.04471,15.74562 -35.56825,32.9294 -51.886137,57.43537 -6.54833,9.83419 -9.56822,15.01991 -9.14529,15.70422 0.52189,0.84443 18.47708,0.68861 25.235537,-0.219 z"
     id="path2464" />
  <path
     stroke="#93c2b0"
     vector-effect="non-scaling-stroke"
     d="m 32.445353,189.40343 c -3.58779,7.71014 -6.78689,14.67414 -8.66051,22.5932 -1.24576,5.3026 -0.82719,10.1575 3.56784,13.38083 3.78711,2.7856 9.51759,1.71116 14.3013,0.91528 q 10.69358,-1.7808 19.7328,-4.65594 9.21861,-2.92488 12.88612,-4.00927 2.94995,-0.87548 6.00953,0 34.701827,9.92867 66.692887,-1.61167 c 37.7614,-13.62955 64.7794,-46.0022 71.57624,-85.40849 q 1.61451,-9.32181 1.56468,-33.96443 -0.13952,-67.39162 -0.0798,-70.02799 C 220.23576,17.32298 218.71095,9.18505 209.67173,4.93701 206.32314,3.36514 202.56594,3.07662 198.88846,3.09653 Q 153.85183,3.36514 121.37243,3.21591 102.22764,3.12641 93.567133,4.6485 C 64.137353,9.84166 39.291953,25.26194 22.349653,49.626 Q 5.626605,73.66175 3.46397,102.70162 -0.20354,151.84757 32.275853,188.2494 a 1.045708,1.0552833 41.703761 0 1 0.16943,1.15403"
     id="path322"
     style="fill:none;stroke:#298965;stroke-width:6.191;stroke-linecap:butt;stroke-dasharray:none;stroke-opacity:1" />
  <path
     stroke="#9b9d9d"
     vector-effect="non-scaling-stroke"
     d="m 539.58278,165.03479 0.54,0.03"
     id="path336"
     style="fill:none;stroke-width:2;stroke-linecap:butt" />
  <g
     id="g3057"
     style="stroke:#ffffff;stroke-opacity:1;fill:#ffffff;fill-opacity:1">
    <path
       fill="#393f3f"
       d="m 782.07958,45.57982 v 15.68 a 1.04,1.04 0 0 1 -1.14,1.04 q -6.45,-0.6 -11.28,-0.23 -8.49,0.64 -10.34,8.27 -1.66,6.86 -0.96,12.52 0.26,2.09 2.02,2.77 a 1.24,1.17 53.8 0 0 0.43,0.08 h 16.47 a 0.82,0.83 0 0 1 0.82,0.83 v 16.84 a 1.03,1.03 0 0 1 -1.03,1.03 q -6.01,-0.02 -12.46,0.2 c -3.22,0.12 -5.5,-0.43 -5.53,3.47 q -0.3,45.27 0.03,68.77 0.02,1.7 -0.44,2.89 a 0.93,0.93 0 0 1 -0.84,0.6 q -9.94,0.32 -18.15,0.28 c -4.11,-0.02 -2.66,-4.14 -2.64,-6.63 q 0.09,-14.16 -0.01,-54.48 -0.02,-7.88 -0.43,-13.25 a 1.74,1.73 87.9 0 0 -1.73,-1.61 h -10.07 a 1.76,1.75 0 0 1 -1.76,-1.75 v -15.61 a 1.62,1.61 1.5 0 1 1.71,-1.61 q 1.11,0.06 8.76,-0.09 3.46,-0.06 3.34,-3.57 -0.19,-5.63 0.69,-14.04 0.93,-8.93 3.95,-13.26 c 8.93,-12.81 26.51,-11.27 39.94,-9.86 a 0.72,0.72 0 0 1 0.65,0.72 z"
       id="path398"
       style="fill:#ffffff;fill-opacity:1;stroke:#ffffff;stroke-opacity:1;stroke-width:1.6;stroke-dasharray:none" />
    <circle
       fill="#393f3f"
       cx="696.15955"
       cy="58.889816"
       r="14.5"
       id="circle402"
       style="fill:#ffffff;fill-opacity:1;stroke:#ffffff;stroke-opacity:1;stroke-width:1.6;stroke-dasharray:none" />
    <path
       fill="#393f3f"
       d="m 266.13958,51.30982 a 0.89,0.89 0 0 1 0.89,-0.89 h 22.24 a 1.43,1.43 0 0 1 1.43,1.44 q -0.16,34.41 -0.11,101.19 0.01,2.72 0.53,4.16 a 2.68,2.69 80.1 0 0 2.53,1.77 h 53.29 a 1.26,1.26 0 0 1 1.26,1.26 v 18.35 a 1.83,1.82 0 0 1 -1.83,1.82 h -78.71 a 1.52,1.52 0 0 1 -1.52,-1.52 z"
       id="path410"
       style="fill:#ffffff;fill-opacity:1;stroke:#ffffff;stroke-opacity:1;stroke-width:1.6;stroke-dasharray:none" />
    <path
       fill="#393f3f"
       d="m 585.44958,51.31982 a 0.89,0.89 0 0 1 0.89,-0.89 h 21.91 a 1.5,1.5 0 0 1 1.5,1.5 q 0,12.35 0.07,103.14 0,3.8 3.34,3.83 26.34,0.21 53.76,0 a 1.3,1.3 0 0 1 1.31,1.3 v 18.26 a 1.96,1.96 0 0 1 -1.96,1.96 h -79.53 a 1.29,1.29 0 0 1 -1.29,-1.29 z"
       id="path412"
       style="fill:#ffffff;fill-opacity:1;stroke:#ffffff;stroke-opacity:1;stroke-width:1.6;stroke-dasharray:none" />
    <path
       fill="#393f3f"
       d="m 355.57958,136.99982 c -1.47,-19.5 6.46,-35.87 23.33,-45.7 q 20.08,-11.7 42.1,-4.22 c 19.02,6.46 30.71,22.46 32.22,42.56 1.52,20.1 -7.65,37.68 -25.48,46.91 q -20.65,10.7 -42.26,2.13 c -18.15,-7.19 -28.44,-22.19 -29.91,-41.68 z m 49.4083,-34.3154 a 25.93,30.27 1 0 0 -26.4544,29.8129 25.93,30.27 1 0 0 25.3978,30.7179 25.93,30.27 1 0 0 26.4544,-29.8129 25.93,30.27 1 0 0 -25.3978,-30.7179 z"
       id="path422"
       style="fill:#ffffff;fill-opacity:1;stroke:#ffffff;stroke-opacity:1;stroke-width:1.6;stroke-dasharray:none" />
    <path
       id="path334"
       style="fill:#ffffff;fill-opacity:1;stroke-width:1.6;stroke-linecap:butt;stroke:#ffffff;stroke-opacity:1;stroke-dasharray:none"
       d="M 830.79102 82.744141 C 826.69649 82.759609 822.63476 83.313048 818.60352 84.404297 C 791.22354 91.824289 782.07235 117.87487 785.40234 143.71484 C 788.09234 164.53482 803.96346 179.57524 824.52344 182.61523 C 840.75675 185.01523 855.73624 182.15515 869.46289 174.03516 C 871.70956 172.70849 872.31654 170.99763 871.2832 168.9043 C 869.4732 165.2643 867.96203 160.79484 866.08203 155.96484 A 1.45 1.44 65.4 0 0 864.05273 155.20508 C 860.19274 157.26508 857.8656 158.48833 857.07227 158.875 C 846.37228 164.05499 833.53249 166.23453 822.3125 161.39453 C 814.26251 157.92453 808.6032 149.88546 809.0332 141.10547 A 1.62 1.63 1.1 0 1 810.63281 139.56445 C 824.64613 139.39112 842.58338 139.36747 864.44336 139.49414 C 867.90336 139.51414 870.99599 139.36802 873.72266 139.05469 A 2.14 2.13 88.7 0 0 875.61328 137.07422 C 876.30328 127.17423 875.37335 116.07507 870.69336 106.70508 C 864.40003 94.111757 854.30233 86.438877 840.40234 83.685547 C 837.17943 83.046798 833.97565 82.732109 830.79102 82.744141 z M 831.26367 101.07422 A 21.17 21.66 89.5 0 1 853.10352 122.05469 L 853.10352 122.23438 A 1.91 1.91 0 0 1 851.21289 124.16406 L 810.0332 124.52539 A 1.91 1.91 0 0 1 808.11328 122.63477 L 808.10352 122.45508 A 21.17 21.66 89.5 0 1 829.58203 101.0957 L 831.26367 101.07422 z " />
    <path
       fill="#393f3f"
       d="m 541.60958,97.02982 v -9.4 c 0,-0.938884 0.75664,-1.7 1.69,-1.7 h 18.23 c 0.80634,0 1.46,0.658141 1.46,1.47 0.0933,23.21333 0.14667,48.56333 0.16,76.05 0,9.94667 -0.49333,16.98667 -1.48,21.12 -1.62667,6.86 -4.83,13.09667 -9.61,18.71 -4.46667,5.24 -9.84,9.08333 -16.12,11.53 -6.90667,2.68667 -13.42,4.14667 -19.54,4.38 -15.32667,0.58667 -29.87667,-2.72667 -43.65,-9.94 -0.91866,-0.4807 -1.35774,-1.55306 -1.04,-2.54 l 4.2,-13.04 c 0.31621,-0.99461 1.42098,-1.50309 2.39,-1.1 0.44667,0.18 1.52,0.70667 3.22,1.58 7.47333,3.82667 15.39667,6 23.77,6.52 9.84667,0.62 17.8,-0.98 23.86,-4.8 7.47333,-4.70667 11.50333,-12.31 12.09,-22.81 0.0933,-1.64 0.17667,-3.89 0.25,-6.75 0.02,-0.72667 -0.25667,-1.21333 -0.83,-1.46 -0.0467,-0.0267 -0.22667,0.0667 -0.54,0.28 l -0.54,-0.03 c -0.37,-0.72 -0.96,-0.38 -1.33,0.12 -7.72,10.27 -19.08,14.57 -32.28,13.16 -11.20667,-1.19333 -20.44667,-5.44333 -27.72,-12.75 -4.76,-4.78667 -8.26,-11.14 -10.5,-19.06 -2.1,-7.43333 -2.43333,-15.68333 -1,-24.75 2.94,-18.69 17.39,-34.63 36.51,-37.13 4,-0.526667 8.38,-0.523333 13.14,0.01 8.59333,0.953333 15.57333,4.743333 20.94,11.37 1.60225,1.359067 4.23967,3.573031 4.27,0.96 z m -27.6621,5.2811 c -14.16002,0.12358 -25.52611,13.15773 -25.3869,29.1126 0.13921,15.9549 11.73105,28.78875 25.8911,28.6652 14.16002,-0.12358 25.52611,-13.15773 25.3869,-29.1126 -0.13921,-15.9549 -11.73105,-28.78875 -25.8911,-28.6652 z"
       id="path424"
       style="fill:#ffffff;fill-opacity:1;stroke:#ffffff;stroke-opacity:1;stroke-width:1.6;stroke-dasharray:none"
       sodipodi:nodetypes="cssscccccccccccccccccccccccccccsssss" />
    <rect
       fill="#393f3f"
       x="684.81958"
       y="85.849808"
       width="22.24"
       height="94.559998"
       rx="1.62"
       id="rect430"
       style="fill:#ffffff;fill-opacity:1;stroke:#ffffff;stroke-opacity:1;stroke-width:1.6;stroke-dasharray:none" />
  </g>
</svg>
