<?xml version="1.0" encoding="UTF-8" standalone="no"?>
<svg
   version="1.1"
   viewBox="-2 -2 878 232"
   id="svg446"
   sodipodi:docname="logo_dark3.svg"
   inkscape:version="1.2.2 (b0a8486541, 2022-12-01)"
   width="876.81714"
   height="230.36501"
   xmlns:inkscape="http://www.inkscape.org/namespaces/inkscape"
   xmlns:sodipodi="http://sodipodi.sourceforge.net/DTD/sodipodi-0.dtd"
   xmlns="http://www.w3.org/2000/svg"
   xmlns:svg="http://www.w3.org/2000/svg">
  <defs
     id="defs450" />
  <sodipodi:namedview
     id="namedview448"
     pagecolor="#ffffff"
     bordercolor="#666666"
     borderopacity="1.0"
     inkscape:showpageshadow="2"
     inkscape:pageopacity="0.0"
     inkscape:pagecheckerboard="true"
     inkscape:deskcolor="#d1d1d1"
     showgrid="false"
     inkscape:zoom="3.6875"
     inkscape:cx="523.25424"
     inkscape:cy="69.423729"
     inkscape:window-width="2764"
     inkscape:window-height="1294"
     inkscape:window-x="399"
     inkscape:window-y="74"
     inkscape:window-maximized="0"
     inkscape:current-layer="svg446" />
  <rect
     style="fill:#cce4d8;fill-opacity:1;stroke:none;stroke-width:5.25751;stroke-linejoin:round;stroke-miterlimit:10;stroke-dasharray:none;stroke-dashoffset:8.16378;stroke-opacity:1"
     id="rect3152"
     width="133.47282"
     height="145.56786"
     x="50.458805"
     y="36.912582" />
  <path
     style="fill:#298965;fill-opacity:1;stroke:#298965;stroke-width:0.291254;stroke-linejoin:round;stroke-miterlimit:10;stroke-dasharray:none;stroke-dashoffset:8.16378;stroke-opacity:1"
     d="m 28.603013,225.5332 c -3.48997,-1.84554 -5.02907,-4.98148 -4.71087,-9.59851 0.27956,-4.0564 2.92585,-12.32769 6.57295,-20.54452 1.37422,-3.09609 2.49858,-5.99177 2.49858,-6.43483 0,-0.44305 -1.18198,-2.18107 -2.62664,-3.86225 C 15.750158,168.11792 6.718607,147.3594 4.229887,125.08723 c -0.71771,-6.42299 -0.70233,-19.59175 0.0306,-26.19086 4.17333,-37.57559 28.522936,-70.9108 62.872686,-86.07428 10.79354,-4.76474 22.92862,-7.98942 33.629757,-8.9365 3.65439,-0.32343 26.45189,-0.55371 55.08536,-0.55643 53.93979,-0.005 52.10064,-0.11599 56.75247,3.42129 2.95434,2.24651 5.51948,6.49931 6.3178,10.4744 0.81739,4.07011 0.86533,94.65647 0.0554,104.66498 -3.0978,38.27972 -26.92654,72.49649 -62.34926,89.53013 -2.8339,1.36273 -8.32542,3.5335 -12.20339,4.82393 -19.73997,6.56869 -38.27288,7.2212 -59.389827,2.09102 -3.1322,-0.76095 -6.72616,-1.38856 -7.98656,-1.3947 -1.26041,-0.006 -6.2638,1.21516 -11.11865,2.71399 -10.83593,3.34539 -15.70443,4.58114 -23.70151,6.01608 -8.07999,1.44982 -10.67017,1.42375 -13.62174,-0.13708 z m 74.326767,-53.23193 c 21.76767,-2.92323 36.96813,-10.31618 50.40687,-24.51607 13.92947,-14.71841 21.85915,-32.94878 25.32548,-58.22339 0.72661,-5.29806 0.93894,-11.04669 0.97161,-26.30509 l 0.0418,-19.52542 -5.69492,-0.17022 c -26.11802,-0.78066 -59.9958,8.83926 -81.355927,23.1018 -8.10275,5.41035 -18.41566,15.56058 -23.20274,22.83674 -8.34482,12.68376 -12.84307,25.89377 -13.5034,39.65541 -0.35393,7.37598 1.05866,25.26622 2.42779,30.74768 1.6707,6.68881 2.28749,6.20643 15.04262,-11.76463 17.16117,-24.17885 23.15517,-31.59659 35.151127,-43.50053 10.47975,-10.39936 24.92076,-22.27544 30.685,-25.23491 4.68858,-2.4072 9.33238,-1.10229 11.58037,3.25409 2.32149,4.49883 0.79785,6.60825 -12.07979,16.72395 -20.04471,15.74562 -35.56825,32.9294 -51.886137,57.43537 -6.54833,9.83419 -9.56822,15.01991 -9.14529,15.70422 0.52189,0.84443 18.47708,0.68861 25.235537,-0.219 z"
     id="path2464" />
  <path
     stroke="#93c2b0"
     vector-effect="non-scaling-stroke"
     d="m 32.445353,189.40343 c -3.58779,7.71014 -6.78689,14.67414 -8.66051,22.5932 -1.24576,5.3026 -0.82719,10.1575 3.56784,13.38083 3.78711,2.7856 9.51759,1.71116 14.3013,0.91528 q 10.69358,-1.7808 19.7328,-4.65594 9.21861,-2.92488 12.88612,-4.00927 2.94995,-0.87548 6.00953,0 34.701827,9.92867 66.692887,-1.61167 c 37.7614,-13.62955 64.7794,-46.0022 71.57624,-85.40849 q 1.61451,-9.32181 1.56468,-33.96443 -0.13952,-67.39162 -0.0798,-70.02799 C 220.23576,17.32298 218.71095,9.18505 209.67173,4.93701 206.32314,3.36514 202.56594,3.07662 198.88846,3.09653 Q 153.85183,3.36514 121.37243,3.21591 102.22764,3.12641 93.567133,4.6485 C 64.137353,9.84166 39.291953,25.26194 22.349653,49.626 Q 5.626605,73.66175 3.46397,102.70162 -0.20354,151.84757 32.275853,188.2494 a 1.045708,1.0552833 41.703761 0 1 0.16943,1.15403"
     id="path322"
     style="fill:none;stroke:#298965;stroke-width:6.191;stroke-linecap:butt;stroke-dasharray:none;stroke-opacity:1" />
  <path
     fill="#393f3f"
     d="m 782.07958,45.57982 v 15.68 a 1.04,1.04 0 0 1 -1.14,1.04 q -6.45,-0.6 -11.28,-0.23 -8.49,0.64 -10.34,8.27 -1.66,6.86 -0.96,12.52 0.26,2.09 2.02,2.77 a 1.24,1.17 53.8 0 0 0.43,0.08 h 16.47 a 0.82,0.83 0 0 1 0.82,0.83 v 16.84 a 1.03,1.03 0 0 1 -1.03,1.03 q -6.01,-0.02 -12.46,0.2 c -3.22,0.12 -5.5,-0.43 -5.53,3.47 q -0.3,45.27 0.03,68.77 0.02,1.7 -0.44,2.89 a 0.93,0.93 0 0 1 -0.84,0.6 q -9.94,0.32 -18.15,0.28 c -4.11,-0.02 -2.66,-4.14 -2.64,-6.63 q 0.09,-14.16 -0.01,-54.48 -0.02,-7.88 -0.43,-13.25 a 1.74,1.73 87.9 0 0 -1.73,-1.61 h -10.07 a 1.76,1.75 0 0 1 -1.76,-1.75 v -15.61 a 1.62,1.61 1.5 0 1 1.71,-1.61 q 1.11,0.06 8.76,-0.09 3.46,-0.06 3.34,-3.57 -0.19,-5.63 0.69,-14.04 0.93,-8.93 3.95,-13.26 c 8.93,-12.81 26.51,-11.27 39.94,-9.86 a 0.72,0.72 0 0 1 0.65,0.72 z"
     id="path398" />
  <path
     fill="#020304"
     d="m 734.69958,105.64982 q -5.39,-0.22 -10.23,-0.17 -2.46,0.03 -2.52,-2.43 -0.19,-8.74 0.09,-16.79 a 1.7,1.7 0 0 1 1.7,-1.64 h 10.77 a 1.25,1.25 0 0 0 1.25,-1.23 c 0.16,-9.47 -0.34,-19.24 3.35,-26.76 6.25,-12.73 22.87,-15.22 35.61,-13.6 q 2.43,0.3 7.01,0.69 a 1.82,1.82 0 0 1 1.67,1.81 q 0.01,3.16 0.05,15.03 0.01,3.09 -2.43,2.88 -4.51,-0.4 -12.04,-0.14 c -10.06,0.36 -10,13.26 -9.43,20.18 a 1.28,1.27 87.5 0 0 1.27,1.17 h 17.59 a 0.99,0.99 0 0 1 0.99,0.99 v 18.73 a 1.21,1.21 0 0 1 -1.21,1.21 h -16.66 a 1.54,1.54 0 0 0 -1.54,1.54 q 0.02,43.03 -0.09,71.18 -0.01,2.19 -0.67,2.67 -0.69,0.49 -2.67,0.52 -4.58,0.04 -18.12,0.04 -2.7,0 -2.7,-2.76 0.04,-22.84 -0.23,-72.27 a 0.85,0.85 0 0 0 -0.81,-0.85 z m 47.38,-60.07 a 0.72,0.72 0 0 0 -0.65,-0.72 c -13.43,-1.41 -31.01,-2.95 -39.94,9.86 q -3.02,4.33 -3.95,13.26 -0.88,8.41 -0.69,14.04 0.12,3.51 -3.34,3.57 -7.65,0.15 -8.76,0.09 a 1.62,1.61 1.5 0 0 -1.71,1.61 v 15.61 a 1.76,1.75 0 0 0 1.76,1.75 h 10.07 a 1.74,1.73 87.9 0 1 1.73,1.61 q 0.41,5.37 0.43,13.25 0.1,40.32 0.01,54.48 c -0.02,2.49 -1.47,6.61 2.64,6.63 q 8.21,0.04 18.15,-0.28 a 0.93,0.93 0 0 0 0.84,-0.6 q 0.46,-1.19 0.44,-2.89 -0.33,-23.5 -0.03,-68.77 c 0.03,-3.9 2.31,-3.35 5.53,-3.47 q 6.45,-0.22 12.46,-0.2 a 1.03,1.03 0 0 0 1.03,-1.03 v -16.84 a 0.82,0.83 0 0 0 -0.82,-0.83 h -16.47 a 1.24,1.17 53.8 0 1 -0.43,-0.08 q -1.76,-0.68 -2.02,-2.77 -0.7,-5.66 0.96,-12.52 1.85,-7.63 10.34,-8.27 4.83,-0.37 11.28,0.23 a 1.04,1.04 0 0 0 1.14,-1.04 z"
     id="path394"
     style="fill:#ffffff;fill-opacity:1" />
  <path
     fill="#020304"
     d="m 711.77958,58.88982 a 15.68,15.68 0 0 1 -15.68,15.68 15.68,15.68 0 0 1 -15.68,-15.68 15.68,15.68 0 0 1 15.68,-15.68 15.68,15.68 0 0 1 15.68,15.68 z m -1.12,0 a 14.5,14.5 0 0 0 -14.5,-14.5 14.5,14.5 0 0 0 -14.5,14.5 14.5,14.5 0 0 0 14.5,14.5 14.5,14.5 0 0 0 14.5,-14.5 z"
     id="path396"
     style="fill:#ffffff;fill-opacity:1" />
  <circle
     fill="#393f3f"
     cx="696.15955"
     cy="58.889816"
     r="14.5"
     id="circle402" />
  <path
     fill="#393f3f"
     d="m 266.13958,51.30982 a 0.89,0.89 0 0 1 0.89,-0.89 h 22.24 a 1.43,1.43 0 0 1 1.43,1.44 q -0.16,34.41 -0.11,101.19 0.01,2.72 0.53,4.16 a 2.68,2.69 80.1 0 0 2.53,1.77 h 53.29 a 1.26,1.26 0 0 1 1.26,1.26 v 18.35 a 1.83,1.82 0 0 1 -1.83,1.82 h -78.71 a 1.52,1.52 0 0 1 -1.52,-1.52 z"
     id="path410" />
  <path
     fill="#020304"
     d="m 264.98958,50.15982 a 0.6,0.6 0 0 1 0.6,-0.6 h 24.78 a 1.46,1.46 0 0 1 1.46,1.46 v 105.05 a 1.76,1.76 0 0 0 1.76,1.76 q 40.06,0.05 53.1,0 2.63,-0.01 2.66,2.26 0.07,6.93 0.04,17.77 -0.01,3.61 -3.19,3.61 -60.26,0.11 -78.43,-0.02 -1.02,-0.01 -1.42,-0.05 a 1.48,1.49 2.3 0 1 -1.36,-1.48 z m 1.15,1.15 v 127.58 a 1.52,1.52 0 0 0 1.52,1.52 h 78.71 a 1.83,1.82 0 0 0 1.83,-1.82 v -18.35 a 1.26,1.26 0 0 0 -1.26,-1.26 h -53.29 a 2.68,2.69 80.1 0 1 -2.53,-1.77 q -0.52,-1.44 -0.53,-4.16 -0.05,-66.78 0.11,-101.19 a 1.43,1.43 0 0 0 -1.43,-1.44 h -22.24 a 0.89,0.89 0 0 0 -0.89,0.89 z"
     id="path406"
     style="fill:#ffffff;fill-opacity:1;stroke:#ffffff;stroke-opacity:1;stroke-width:0.20141948;stroke-dasharray:none" />
  <path
     fill="#393f3f"
     d="m 585.44958,51.31982 a 0.89,0.89 0 0 1 0.89,-0.89 h 21.91 a 1.5,1.5 0 0 1 1.5,1.5 q 0,12.35 0.07,103.14 0,3.8 3.34,3.83 26.34,0.21 53.76,0 a 1.3,1.3 0 0 1 1.31,1.3 v 18.26 a 1.96,1.96 0 0 1 -1.96,1.96 h -79.53 a 1.29,1.29 0 0 1 -1.29,-1.29 z"
     id="path412" />
  <path
     fill="#020304"
     d="m 584.96958,49.543245 h 24.71 a 1.18,1.19 0 0 1 1.18,1.19 V 156.13325 a 1.68,1.68 0 0 0 1.68,1.68 q 11.33,0.02 54.38,0 c 2.78,0 2.44,2.25 2.48,4.85 q 0.13,8.94 -0.14,15.97 -0.11,2.99 -3.57,2.93 -12.53,-0.23 -79.24,-0.01 -2.16,0 -2.17,-2.45 -0.08,-79.480005 -0.05,-128.820005 a 0.74,0.74 0 0 1 0.74,-0.74 z m 0.48,1.76 V 179.11325 a 1.29,1.29 0 0 0 1.29,1.29 h 79.53 a 1.96,1.96 0 0 0 1.96,-1.96 v -18.26 a 1.3,1.3 0 0 0 -1.31,-1.3 q -27.42,0.21 -53.76,0 -3.34,-0.03 -3.34,-3.83 -0.07,-90.790005 -0.07,-103.140005 a 1.5,1.5 0 0 0 -1.5,-1.5 h -21.91 a 0.89,0.89 0 0 0 -0.89,0.89 z"
     id="path408"
     style="fill:#ffffff;fill-opacity:1;stroke-width:1.20852;stroke-dasharray:none" />
  <path
     stroke="#1e2122"
     vector-effect="non-scaling-stroke"
     d="m 355.58278,136.93479 c 1.47,19.49 11.76,34.49 29.91,41.68 q 21.61,8.57 42.26,-2.13 c 17.83,-9.23 27,-26.81 25.48,-46.91 -1.51,-20.1 -13.2,-36.1 -32.22,-42.56 q -22.02,-7.48 -42.1,4.22 c -16.87,9.83 -24.8,26.2 -23.33,45.7"
     id="path370"
     style="fill:none;stroke-width:2;stroke-linecap:butt" />
  <path
     fill="#393f3f"
     d="m 355.57958,136.99982 c -1.47,-19.5 6.46,-35.87 23.33,-45.7 q 20.08,-11.7 42.1,-4.22 c 19.02,6.46 30.71,22.46 32.22,42.56 1.52,20.1 -7.65,37.68 -25.48,46.91 q -20.65,10.7 -42.26,2.13 c -18.15,-7.19 -28.44,-22.19 -29.91,-41.68 z m 49.4083,-34.3154 a 25.93,30.27 1 0 0 -26.4544,29.8129 25.93,30.27 1 0 0 25.3978,30.7179 25.93,30.27 1 0 0 26.4544,-29.8129 25.93,30.27 1 0 0 -25.3978,-30.7179 z"
     id="path422" />
  <path
     fill="#020304"
     d="m 454.47958,132.14982 c 0.47,20.63 -9.84,38.1 -28.56,46.58 q -21.68,9.82 -43.31,-0.09 c -18.16,-8.32 -27.88,-24.21 -28.33,-44.2 -0.46,-20.01 8.53,-36.32 26.29,-45.46 q 21.16,-10.89 43.26,-2.06 c 19.09,7.62 30.18,24.61 30.65,45.23 z m -98.9,4.85 c 1.47,19.49 11.76,34.49 29.91,41.68 q 21.61,8.57 42.26,-2.13 c 17.83,-9.23 27,-26.81 25.48,-46.91 -1.51,-20.1 -13.2,-36.1 -32.22,-42.56 q -22.02,-7.48 -42.1,4.22 c -16.87,9.83 -24.8,26.2 -23.33,45.7 z"
     id="path414"
     style="fill:#ffffff;fill-opacity:1" />
  <path
     fill="#393f3f"
     d="m 863.93958,156.53982 a 0.97,0.97 0 0 1 1.36,0.5 l 5.24,13.28 a 1.84,1.83 63.2 0 1 -0.73,2.23 q -3.69,2.35 -5.64,3.26 c -24.1,11.26 -58.33,9.51 -72.63,-16.63 q -4.91,-8.97 -5.36,-20.31 c -0.46,-11.82 1.08,-24.81 7.25,-34.76 q 9.98,-16.1 29.73,-19.47 4.45,-0.76 11.43,-0.44 c 17.85,0.81 31.92,11.99 37.43,28.75 2.56,7.76 2.46,15.36 2.53,23.4 a 1.9,1.89 86.6 0 1 -1.68,1.9 q -3.84,0.43 -8.18,0.41 -26.14,-0.12 -54.36,0.04 a 2.11,2.11 0 0 0 -2.07,1.78 q -0.88,5.44 2.03,11.02 c 9.53,18.27 33.14,15.7 48.42,7.78 q 1.76,-0.92 5.23,-2.74 z m -53.91,-31.95 41.18,-0.36 a 1.91,1.91 0 0 0 1.89,-1.93 v -0.18 a 21.17,21.66 89.5 0 0 -21.84,-20.98 l -1.68,0.02 a 21.17,21.66 89.5 0 0 -21.48,21.36 l 0.01,0.18 a 1.91,1.91 0 0 0 1.92,1.89 z"
     id="path420" />
  <path
     fill="#020304"
     d="m 809.02958,141.16982 c -0.43,8.78 5.23,16.82 13.28,20.29 11.22,4.84 24.06,2.66 34.76,-2.52 q 1.19,-0.58 6.98,-3.67 a 1.45,1.44 65.4 0 1 2.03,0.76 c 1.88,4.83 3.39,9.3 5.2,12.94 q 1.55,3.14 -1.82,5.13 -20.59,12.18 -44.94,8.58 c -20.56,-3.04 -36.43,-18.08 -39.12,-38.9 -3.33,-25.84 5.82,-51.89 33.2,-59.31 q 10.75,-2.91 21.8,-0.72 20.85,4.13 30.29,23.02 c 4.68,9.37 5.61,20.47 4.92,30.37 a 2.14,2.13 88.7 0 1 -1.89,1.98 q -4.09,0.47 -9.28,0.44 -32.79,-0.19 -53.81,0.07 a 1.62,1.63 1.1 0 0 -1.6,1.54 z m 54.91,15.37 q -3.47,1.82 -5.23,2.74 c -15.28,7.92 -38.89,10.49 -48.42,-7.78 q -2.91,-5.58 -2.03,-11.02 a 2.11,2.11 0 0 1 2.07,-1.78 q 28.22,-0.16 54.36,-0.04 4.34,0.02 8.18,-0.41 a 1.9,1.89 86.6 0 0 1.68,-1.9 c -0.07,-8.04 0.03,-15.64 -2.53,-23.4 -5.51,-16.76 -19.58,-27.94 -37.43,-28.75 q -6.98,-0.32 -11.43,0.44 -19.75,3.37 -29.73,19.47 c -6.17,9.95 -7.71,22.94 -7.25,34.76 q 0.45,11.34 5.36,20.31 c 14.3,26.14 48.53,27.89 72.63,16.63 q 1.95,-0.91 5.64,-3.26 a 1.84,1.83 63.2 0 0 0.73,-2.23 l -5.24,-13.28 a 0.97,0.97 0 0 0 -1.36,-0.5 z"
     id="path416"
     style="fill:#ffffff;fill-opacity:1;stroke:#ffffff;stroke-opacity:1;stroke-width:0.20141948;stroke-dasharray:none" />
  <path
     fill="#020304"
     d="m 810.02958,124.58982 a 1.91,1.91 0 0 1 -1.92,-1.89 l -0.01,-0.18 a 21.17,21.66 89.5 0 1 21.48,-21.36 l 1.68,-0.02 a 21.17,21.66 89.5 0 1 21.84,20.98 v 0.18 a 1.91,1.91 0 0 1 -1.89,1.93 z m -1.35,-2.6 a 1.27,1.27 0 0 0 1.26,1.41 h 40.33 a 1.59,1.58 89 0 0 1.58,-1.65 c -0.41,-10.41 -7.01,-18.54 -17.57,-19.22 -5.87,-0.39 -10.83,-0.09 -15.69,3.13 q -8.73,5.78 -9.91,16.33 z"
     id="path432"
     style="fill:#ffffff;fill-opacity:1" />
  <path
     fill="#393f3f"
     d="m 541.2529,98.024353 c -0.0469,-1.679111 -0.66999,-1.004533 -0.70332,-2.684533 l 0.12,1.75 c 0.0105,0.152557 0.14182,0.270708 0.3,0.27 h 0.31 c 0.18225,0 0.33,-0.147746 0.33,-0.33 v -9.4 c 0,-0.938884 0.75664,-1.7 1.69,-1.7 h 18.23 c 0.80634,0 1.46,0.658141 1.46,1.47 0.0933,23.21333 0.14667,48.56333 0.16,76.05 0,9.94667 -0.49333,16.98667 -1.48,21.12 -1.62667,6.86 -4.83,13.09667 -9.61,18.71 -4.46667,5.24 -9.84,9.08333 -16.12,11.53 -6.90667,2.68667 -13.42,4.14667 -19.54,4.38 -15.32667,0.58667 -29.87667,-2.72667 -43.65,-9.94 -0.91866,-0.4807 -1.35774,-1.55306 -1.04,-2.54 l 4.2,-13.04 c 0.31621,-0.99461 1.42098,-1.50309 2.39,-1.1 0.44667,0.18 1.52,0.70667 3.22,1.58 7.47333,3.82667 15.39667,6 23.77,6.52 9.84667,0.62 17.8,-0.98 23.86,-4.8 7.47333,-4.70667 11.50333,-12.31 12.09,-22.81 0.0933,-1.64 0.17667,-3.89 0.25,-6.75 0.02,-0.72667 -0.25667,-1.21333 -0.83,-1.46 -0.0467,-0.0267 -0.22667,0.0667 -0.54,0.28 l -0.54,-0.03 c -0.37,-0.72 -0.96,-0.38 -1.33,0.12 -7.72,10.27 -19.08,14.57 -32.28,13.16 -11.20667,-1.19333 -20.44667,-5.44333 -27.72,-12.75 -4.76,-4.78667 -8.26,-11.14 -10.5,-19.06 -2.1,-7.43333 -2.43333,-15.68333 -1,-24.75 2.94,-18.69 17.39,-34.63 36.51,-37.13 4,-0.526667 8.38,-0.523333 13.14,0.01 8.59333,0.953333 15.57333,4.743333 20.94,11.37 0.35333,0.44 0.71667,0.756667 1.09,0.95 0.65333,0.333333 2.17168,1.009025 2.82332,1.004533 z m -27.30542,4.286567 c -14.16002,0.12358 -25.52611,13.15773 -25.3869,29.1126 0.13921,15.9549 11.73105,28.78875 25.8911,28.6652 14.16002,-0.12358 25.52611,-13.15773 25.3869,-29.1126 -0.13921,-15.9549 -11.73105,-28.78875 -25.8911,-28.6652 z"
     id="path424"
     sodipodi:nodetypes="ccccsssssccccccccccccccccccccccccccccsssss" />
  <path
     fill="#020304"
     d="m 540.11958,165.12982 c 0.31333,-0.21333 0.49333,-0.30667 0.54,-0.28 0.57333,0.24667 0.85,0.73333 0.83,1.46 -0.0733,2.86 -0.15667,5.11 -0.25,6.75 -0.58667,10.5 -4.61667,18.10333 -12.09,22.81 -6.06,3.82 -14.01333,5.42 -23.86,4.8 -8.37333,-0.52 -16.29667,-2.69333 -23.77,-6.52 -1.7,-0.87333 -2.77333,-1.4 -3.22,-1.58 -0.96902,-0.40309 -2.07379,0.10539 -2.39,1.1 l -4.2,13.04 c -0.31774,0.98694 0.12134,2.0593 1.04,2.54 13.77333,7.21333 28.32333,10.52667 43.65,9.94 6.12,-0.23333 12.63333,-1.69333 19.54,-4.38 6.28,-2.44667 11.65333,-6.29 16.12,-11.53 4.78,-5.61333 7.98333,-11.85 9.61,-18.71 0.98667,-4.13333 1.48,-11.17333 1.48,-21.12 -0.0133,-27.48667 -0.0667,-52.83667 -0.16,-76.05 0,-0.811859 -0.65366,-1.47 -1.46,-1.47 h -18.23 c -0.93336,0 -1.69,0.761116 -1.69,1.7 v 9.4 c 0,0.182254 0.10458,1.07985 -0.15475,1.045421 l -0.92459,-0.122751 c -3.1276,-2.140112 0.14988,-0.710114 0.13934,-0.862671 l -0.12,-1.75 -0.28,-8.46 c -0.0191,-0.557399 0.27857,-1.079239 0.77,-1.35 0.78,-0.433333 1.99667,-0.656667 3.65,-0.67 5.44,-0.06 11.02,-0.06 16.74,0 1.75333,0.02 2.62667,0.913333 2.62,2.68 -0.0333,12.906671 -0.03,39.743331 0.01,80.510001 0.01,9.48 -0.56,17.29 -4.27,25.1 -14.66,30.81 -51.95,31.94 -79.56,20.88 -3.40667,-1.36667 -6.20667,-2.73 -8.4,-4.09 -1.23255,-0.7674 -1.78185,-2.27489 -1.33,-3.65 0.74,-2.24 1.96333,-5.90333 3.67,-10.99 0.55333,-1.63333 1.15333,-2.72 1.8,-3.26 0.99333,-0.82 2.11333,-0.89333 3.36,-0.22 11.97333,6.48667 24.41333,8.94 37.32,7.36 10.9,-1.33 20.56,-8.63 22.57,-19.86 0.78,-4.4 1.08,-9.13 0.9,-14.19 z"
     id="path426"
     style="fill:#ffffff;fill-opacity:1"
     sodipodi:nodetypes="cccccccccccccccccsssssccccccccccccccccccc" />
  <path
     fill="#020304"
     d="m 539.16039,96.658407 c 4.00463,1.814987 1.23773,1.404429 0.10078,0.995421 -0.65337,-0.240202 -1.56826,-1.144001 -1.92159,-1.584001 -5.36667,-6.626667 -12.34667,-10.416667 -20.94,-11.37 -4.76,-0.533333 -9.14,-0.536667 -13.14,-0.01 -19.12,2.5 -33.57,18.440003 -36.51,37.130003 -1.43333,9.06667 -1.1,17.31667 1,24.75 2.24,7.92 5.74,14.27333 10.5,19.06 7.27333,7.30667 16.51333,11.55667 27.72,12.75 13.2,1.41 24.56,-2.89 32.28,-13.16 0.37,-0.5 1.65905,-1.46027 2.77643,-0.13878 -6.25374,6.91216 -17.80976,14.58211 -30.09643,14.56878 -20.79,-0.03 -38.24,-11.83 -44.12,-31.88 -1.71333,-5.84 -2.35,-12.74333 -1.91,-20.71 0.85333,-15.21333 7.53667,-27.300003 20.05,-36.260003 6.48667,-4.64 13.72667,-7.253333 21.72,-7.84 15.69148,-0.566929 24.42565,4.668 28.47588,8.845352 z"
     id="path418"
     style="fill:#ffffff;fill-opacity:1"
     sodipodi:nodetypes="cccccccccccccccccc" />
  <path
     fill="#020304"
     d="m 513.94748,102.31092 a 28.89,25.64 89.5 0 1 25.8911,28.6652 28.89,25.64 89.5 0 1 -25.3869,29.1126 28.89,25.64 89.5 0 1 -25.8911,-28.6652 28.89,25.64 89.5 0 1 25.3869,-29.1126 z m -24.0079,28.8189 c 0,14.46 8.52,27.51 24.2,27.51 15.68,0 24.21,-13.04 24.21,-27.5 0,-14.46 -8.52,-27.5 -24.2,-27.51 -15.68,0 -24.21,13.04 -24.21,27.5 z"
     id="path438"
     style="stroke:none;fill:#ffffff;fill-opacity:1" />
  <path
     stroke="#1e2122"
     vector-effect="non-scaling-stroke"
     d="m 707.06278,87.40479 a 1.62,1.62 0 0 0 -1.62,-1.62 h -19 a 1.62,1.62 0 0 0 -1.62,1.62 v 91.32 a 1.62,1.62 0 0 0 1.62,1.62 h 19 a 1.62,1.62 0 0 0 1.62,-1.62 v -91.32"
     id="path380"
     style="fill:#393f3f;stroke-width:2;stroke-linecap:butt;fill-opacity:1" />
  <rect
     fill="#393f3f"
     x="684.81958"
     y="85.849808"
     width="22.24"
     height="94.559998"
     rx="1.62"
     id="rect430" />
  <path
     fill="#020304"
     d="m 708.05958,179.17982 a 2.31,2.31 0 0 1 -2.31,2.31 h -19.72 a 2.31,2.31 0 0 1 -2.31,-2.31 v -92.12 a 2.31,2.31 0 0 1 2.31,-2.31 h 19.72 a 2.31,2.31 0 0 1 2.31,2.31 z m -1,-91.71 a 1.62,1.62 0 0 0 -1.62,-1.62 h -19 a 1.62,1.62 0 0 0 -1.62,1.62 v 91.32 a 1.62,1.62 0 0 0 1.62,1.62 h 19 a 1.62,1.62 0 0 0 1.62,-1.62 z"
     id="path428"
     style="fill:#ffffff;fill-opacity:1" />
  <path
     fill="#020304"
     d="m 404.98788,102.68442 a 25.93,30.27 1 0 1 25.3978,30.7179 25.93,30.27 1 0 1 -26.4544,29.8129 25.93,30.27 1 0 1 -25.3978,-30.7179 25.93,30.27 1 0 1 26.4544,-29.8129 z m -0.19,0.9983 a 24.71,29.24 0.8 0 0 -25.1159,28.8921 24.71,29.24 0.8 0 0 24.2993,29.5821 24.71,29.24 0.8 0 0 25.1159,-28.8921 24.71,29.24 0.8 0 0 -24.2993,-29.5821 z"
     id="path436"
     style="fill:#ffffff;fill-opacity:1" />
</svg>
